<svg xmlns="http://www.w3.org/2000/svg" version="1.1" xmlns:xlink="http://www.w3.org/1999/xlink" xmlns:svgjs="http://svgjs.dev/svgjs" width="1500" height="1500" viewBox="0 0 1500 1500"><rect width="1500" height="1500" fill="#000000"></rect><g transform="matrix(0.6666666666666666,0,0,0.6666666666666666,249.39393939393938,438.5856950067477)"><svg viewBox="0 0 396 247" data-background-color="#1a1a1a" preserveAspectRatio="xMidYMid meet" height="935" width="1500" xmlns="http://www.w3.org/2000/svg" xmlns:xlink="http://www.w3.org/1999/xlink"><g id="tight-bounds" transform="matrix(1,0,0,1,0.2400000000000091,-0.09999999999999432)"><svg viewBox="0 0 395.52 247.2" height="247.2" width="395.52"><g><svg></svg></g><g><svg viewBox="0 0 395.52 247.2" height="247.2" width="395.52"><g transform="matrix(1,0,0,1,75.54432,81.92917086789197)"><svg viewBox="0 0 244.43135999999998 83.34165826421604" height="83.34165826421604" width="244.43135999999998"><g><svg viewBox="0 0 438.7209250056784 149.5869" height="83.34165826421604" width="244.43135999999998"><g><svg viewBox="0 0 244.43136 149.5869" height="149.5869" width="244.43136"><g id="textblocktransform"><svg viewBox="0 0 244.43136 149.5869" height="149.5869" width="244.43136" id="textblock"><g><svg viewBox="0 0 244.43136 149.5869" height="149.5869" width="244.43136"><g transform="matrix(1,0,0,1,0,0)"><svg width="244.43136" viewBox="-0.78 -34.96 59.13 34.42" height="149.5869" data-palette-color="#ffffff"><g class="wordmark-text-0" data-fill-palette-color="primary" id="text-0"><path d="M22.51-34.96L32.03-2.1 19.92-0.54 18.46-6.05 12.89-6.05 11.67-0.54-0.78-1.76 8.94-34.28 22.51-34.96ZM13.92-13.53L17.58-13.53 15.72-22.02 13.92-13.53ZM31.74-34.86L58.35-34.91 58.1-24.56 50.83-24.27 48.97-1.12 38.67-0.59 38.72-23.73 31.44-23.34 31.74-34.86Z" fill="#ffffff" data-fill-palette-color="primary"></path></g></svg></g></svg></g></svg></g></svg></g><g transform="matrix(1,0,0,1,315.0591140088,12.962544501560814)"><svg viewBox="0 0 123.66181099687839 123.66181099687839" height="123.66181099687839" width="123.66181099687839"><g><svg></svg></g><g id="icon-0"><svg viewBox="0 0 123.66181099687839 123.66181099687839" height="123.66181099687839" width="123.66181099687839"><g><path d="M0 61.831c0-34.148 27.683-61.831 61.831-61.831 34.148 0 61.831 27.683 61.831 61.831 0 34.148-27.683 61.831-61.831 61.831-34.148 0-61.831-27.683-61.831-61.831zM61.831 110.172c26.698 0 48.341-21.643 48.341-48.341 0-26.698-21.643-48.341-48.341-48.341-26.698 0-48.341 21.643-48.341 48.341 0 26.698 21.643 48.341 48.341 48.341z" data-fill-palette-color="accent" fill="#ffffff" stroke="transparent"></path></g><g transform="matrix(1,0,0,1,41.49445841720907,41.352703754022706)"><svg viewBox="0 0 40.67289416246025 40.956403488832976" height="40.956403488832976" width="40.67289416246025"><g><svg xmlns="http://www.w3.org/2000/svg" xmlns:xlink="http://www.w3.org/1999/xlink" version="1.1" x="0" y="0" viewBox="6.243000000000034 4.076 89.37699999999997 90.00000000000001" enable-background="new 0 0 100 100" xml:space="preserve" height="40.956403488832976" width="40.67289416246025" class="icon-cg-0" data-fill-palette-color="accent" id="cg-0"><path d="M73.872 26.511l-3.463 29.362c-0.259 2.066-0.387 4.044-0.387 5.937 0 2.818 1.011 4.217 3.033 4.217 3.227 0 6.325-2.215 9.293-6.647s4.43-9.81 4.43-16.111c0-9.1-3.269-16.521-9.851-22.199-6.582-5.702-14.541-8.54-23.92-8.54-10.282 0-18.93 3.528-25.921 10.583-7.013 7.056-10.497 15.747-10.497 26.093 0 9.658 3.292 18.047 9.852 25.166 6.582 7.121 15.81 10.692 27.706 10.692 9.249 0 18.672-2.474 28.287-7.443l3.721 8.582c-10.282 5.248-20.973 7.873-32.007 7.873-14.67 0-26.307-4.431-34.955-13.272-8.626-8.84-12.95-19.402-12.95-31.664 0-12.82 4.54-23.532 13.617-32.136C28.936 8.378 39.907 4.076 52.749 4.076c12.111 0 22.285 3.721 30.502 11.121C91.49 22.618 95.62 31.976 95.62 43.269c0 8.195-2.323 15.508-6.948 21.918-4.625 6.389-10.239 9.594-16.886 9.594-5.163 0-8.733-2.172-10.713-6.539-3.614 4.538-8.023 6.797-13.229 6.797-5.334 0-9.916-2.215-13.703-6.689-3.807-4.453-5.7-10.304-5.7-17.574 0-7.486 2.13-13.552 6.411-18.242 4.302-4.689 9.4-7.034 15.315-7.034 5.722 0 9.83 1.807 12.347 5.42l0.517-4.41H73.872L73.872 26.511zM48.663 64.779c3.355 0 6.388-1.634 9.099-4.904 2.71-3.248 4.066-7.486 4.066-12.692 0-2.947-1.033-5.57-3.119-7.915-2.066-2.323-4.625-3.485-7.658-3.485-3.27 0-5.981 1.441-8.132 4.324-2.13 2.861-3.205 6.604-3.205 11.186 0 3.893 0.818 7.119 2.496 9.658C43.865 63.488 46.016 64.779 48.663 64.779z" fill="#ffffff" data-fill-palette-color="accent"></path></svg></g></svg></g></svg></g></svg></g></svg></g></svg></g><path d="M180.407 75.929L180.407 21.417 384.774 21.417 384.774 225.783 180.407 225.783 180.407 171.271 187.923 171.271 187.923 218.268 377.258 218.268 377.258 28.932 187.923 28.932 187.923 75.929Z" fill="#ffffff" stroke="transparent" data-fill-palette-color="tertiary"></path></svg></g><defs></defs></svg><rect width="395.52" height="247.2" fill="none" stroke="none" visibility="hidden"></rect></g></svg></g></svg>